<svg xmlns="http://www.w3.org/2000/svg" xmlns:xlink="http://www.w3.org/1999/xlink" width="2000" zoomAndPan="magnify" viewBox="0 0 1500 1499.999933" height="2000" preserveAspectRatio="xMidYMid meet" version="1.0"><defs><clipPath id="aa9761a745"><path d="M 600.222656 600.222656 L 1500 600.222656 L 1500 1500 L 600.222656 1500 Z M 600.222656 600.222656 " clip-rule="nonzero"/></clipPath><clipPath id="00a51e2d9b"><rect x="0" width="900" y="0" height="900"/></clipPath></defs><path fill="#000000" d="M 373.84375 106.8125 C 372.09375 106.8125 370.351562 106.898438 368.609375 107.070312 C 366.867188 107.242188 365.140625 107.5 363.425781 107.839844 C 361.710938 108.179688 360.015625 108.605469 358.339844 109.113281 C 356.667969 109.621094 355.023438 110.210938 353.40625 110.878906 C 351.792969 111.546875 350.210938 112.296875 348.667969 113.121094 C 347.125 113.945312 345.628906 114.84375 344.175781 115.816406 C 342.71875 116.785156 341.316406 117.828125 339.964844 118.9375 C 338.613281 120.046875 337.316406 121.21875 336.082031 122.457031 C 334.84375 123.691406 333.671875 124.988281 332.5625 126.339844 C 331.453125 127.691406 330.410156 129.09375 329.441406 130.550781 C 328.46875 132.003906 327.570312 133.5 326.746094 135.042969 C 325.921875 136.585938 325.171875 138.164062 324.503906 139.78125 C 323.835938 141.398438 323.246094 143.042969 322.738281 144.714844 C 322.230469 146.390625 321.804688 148.085938 321.464844 149.800781 C 321.125 151.515625 320.867188 153.242188 320.695312 154.984375 C 320.523438 156.726562 320.4375 158.46875 320.4375 160.21875 L 320.4375 320.4375 L 160.21875 320.4375 C 158.46875 320.4375 156.726562 320.523438 154.984375 320.695312 C 153.242188 320.867188 151.515625 321.125 149.800781 321.464844 C 148.085938 321.804688 146.390625 322.230469 144.714844 322.738281 C 143.042969 323.246094 141.398438 323.835938 139.78125 324.503906 C 138.164062 325.171875 136.585938 325.921875 135.042969 326.746094 C 133.5 327.570312 132.003906 328.46875 130.550781 329.441406 C 129.09375 330.410156 127.691406 331.453125 126.339844 332.5625 C 124.988281 333.671875 123.691406 334.84375 122.457031 336.082031 C 121.21875 337.316406 120.046875 338.613281 118.9375 339.964844 C 117.828125 341.316406 116.785156 342.71875 115.816406 344.175781 C 114.84375 345.628906 113.945312 347.125 113.121094 348.667969 C 112.296875 350.210938 111.546875 351.789062 110.878906 353.40625 C 110.210938 355.023438 109.621094 356.667969 109.113281 358.339844 C 108.605469 360.015625 108.179688 361.710938 107.839844 363.425781 C 107.5 365.140625 107.242188 366.867188 107.070312 368.609375 C 106.898438 370.351562 106.8125 372.09375 106.8125 373.84375 L 106.8125 854.5 C 106.8125 856.25 106.898438 857.992188 107.070312 859.734375 C 107.242188 861.476562 107.5 863.203125 107.839844 864.917969 C 108.179688 866.632812 108.605469 868.328125 109.113281 870.003906 C 109.621094 871.675781 110.210938 873.320312 110.878906 874.9375 C 111.546875 876.550781 112.296875 878.132812 113.121094 879.675781 C 113.945312 881.21875 114.84375 882.714844 115.816406 884.167969 C 116.785156 885.625 117.828125 887.027344 118.9375 888.378906 C 120.046875 889.730469 121.21875 891.027344 122.457031 892.261719 C 123.691406 893.5 124.988281 894.671875 126.339844 895.78125 C 127.691406 896.890625 129.09375 897.933594 130.550781 898.902344 C 132.003906 899.875 133.5 900.773438 135.042969 901.597656 C 136.585938 902.421875 138.164062 903.167969 139.78125 903.839844 C 141.398438 904.507812 143.042969 905.097656 144.714844 905.605469 C 146.390625 906.113281 148.085938 906.539062 149.800781 906.878906 C 151.515625 907.21875 153.242188 907.476562 154.984375 907.648438 C 156.726562 907.820312 158.46875 907.90625 160.21875 907.90625 L 320.4375 907.90625 L 320.4375 1174.9375 L 961.3125 1174.9375 L 961.3125 907.90625 L 1121.53125 907.90625 C 1123.28125 907.90625 1125.023438 907.820312 1126.765625 907.648438 C 1128.507812 907.476562 1130.234375 907.21875 1131.949219 906.878906 C 1133.664062 906.539062 1135.359375 906.113281 1137.035156 905.605469 C 1138.707031 905.097656 1140.351562 904.507812 1141.96875 903.839844 C 1143.585938 903.167969 1145.164062 902.421875 1146.707031 901.597656 C 1148.25 900.773438 1149.746094 899.875 1151.199219 898.902344 C 1152.65625 897.933594 1154.058594 896.890625 1155.410156 895.78125 C 1156.761719 894.671875 1158.058594 893.5 1159.292969 892.261719 C 1160.53125 891.027344 1161.703125 889.730469 1162.8125 888.378906 C 1163.921875 887.027344 1164.964844 885.625 1165.933594 884.167969 C 1166.90625 882.714844 1167.804688 881.21875 1168.628906 879.675781 C 1169.453125 878.132812 1170.203125 876.550781 1170.871094 874.9375 C 1171.539062 873.320312 1172.128906 871.675781 1172.636719 870.003906 C 1173.144531 868.328125 1173.570312 866.632812 1173.910156 864.917969 C 1174.25 863.203125 1174.507812 861.476562 1174.679688 859.734375 C 1174.851562 857.992188 1174.9375 856.25 1174.9375 854.5 L 1174.9375 373.84375 C 1174.9375 372.09375 1174.851562 370.351562 1174.679688 368.609375 C 1174.507812 366.867188 1174.25 365.140625 1173.910156 363.425781 C 1173.570312 361.710938 1173.144531 360.015625 1172.636719 358.339844 C 1172.128906 356.667969 1171.539062 355.023438 1170.871094 353.40625 C 1170.203125 351.789062 1169.453125 350.210938 1168.628906 348.667969 C 1167.804688 347.125 1166.90625 345.628906 1165.933594 344.175781 C 1164.964844 342.71875 1163.921875 341.316406 1162.8125 339.964844 C 1161.703125 338.613281 1160.53125 337.316406 1159.292969 336.082031 C 1158.058594 334.84375 1156.761719 333.671875 1155.410156 332.5625 C 1154.058594 331.453125 1152.65625 330.410156 1151.199219 329.441406 C 1149.746094 328.46875 1148.25 327.570312 1146.707031 326.746094 C 1145.164062 325.921875 1143.585938 325.171875 1141.96875 324.503906 C 1140.351562 323.835938 1138.707031 323.246094 1137.035156 322.738281 C 1135.359375 322.230469 1133.664062 321.804688 1131.949219 321.464844 C 1130.234375 321.125 1128.507812 320.867188 1126.765625 320.695312 C 1125.023438 320.523438 1123.28125 320.4375 1121.53125 320.4375 L 961.3125 320.4375 L 961.3125 160.21875 C 961.3125 158.46875 961.226562 156.726562 961.054688 154.984375 C 960.882812 153.242188 960.625 151.515625 960.285156 149.800781 C 959.945312 148.085938 959.519531 146.390625 959.011719 144.714844 C 958.503906 143.042969 957.914062 141.398438 957.246094 139.78125 C 956.578125 138.164062 955.828125 136.585938 955.003906 135.042969 C 954.179688 133.5 953.28125 132.003906 952.308594 130.550781 C 951.339844 129.09375 950.296875 127.691406 949.1875 126.339844 C 948.078125 124.988281 946.90625 123.691406 945.667969 122.457031 C 944.433594 121.21875 943.136719 120.046875 941.785156 118.9375 C 940.433594 117.828125 939.03125 116.785156 937.574219 115.816406 C 936.121094 114.84375 934.625 113.945312 933.082031 113.121094 C 931.539062 112.296875 929.960938 111.546875 928.34375 110.878906 C 926.726562 110.210938 925.082031 109.621094 923.410156 109.113281 C 921.734375 108.605469 920.039062 108.179688 918.324219 107.839844 C 916.609375 107.5 914.882812 107.242188 913.140625 107.070312 C 911.398438 106.898438 909.65625 106.8125 907.90625 106.8125 Z M 427.25 213.625 L 854.5 213.625 L 854.5 320.4375 L 427.25 320.4375 Z M 213.625 427.25 L 1068.125 427.25 L 1068.125 801.09375 L 961.3125 801.09375 L 961.3125 640.875 L 320.4375 640.875 L 320.4375 801.09375 L 213.625 801.09375 Z M 961.3125 480.65625 C 959.5625 480.65625 957.820312 480.742188 956.078125 480.914062 C 954.335938 481.085938 952.609375 481.339844 950.894531 481.683594 C 949.179688 482.023438 947.484375 482.449219 945.808594 482.957031 C 944.136719 483.464844 942.492188 484.050781 940.875 484.722656 C 939.257812 485.390625 937.679688 486.136719 936.136719 486.960938 C 934.59375 487.785156 933.097656 488.683594 931.640625 489.65625 C 930.1875 490.628906 928.785156 491.667969 927.433594 492.777344 C 926.078125 493.886719 924.785156 495.0625 923.546875 496.296875 C 922.3125 497.535156 921.136719 498.828125 920.027344 500.183594 C 918.917969 501.535156 917.878906 502.9375 916.90625 504.390625 C 915.933594 505.847656 915.035156 507.34375 914.210938 508.886719 C 913.386719 510.429688 912.640625 512.007812 911.972656 513.625 C 911.300781 515.242188 910.714844 516.886719 910.207031 518.558594 C 909.699219 520.234375 909.273438 521.929688 908.933594 523.644531 C 908.589844 525.359375 908.335938 527.085938 908.164062 528.828125 C 907.992188 530.570312 907.90625 532.3125 907.90625 534.0625 C 907.90625 535.8125 907.992188 537.554688 908.164062 539.296875 C 908.335938 541.039062 908.589844 542.765625 908.933594 544.480469 C 909.273438 546.195312 909.699219 547.890625 910.207031 549.566406 C 910.714844 551.238281 911.300781 552.882812 911.972656 554.5 C 912.640625 556.117188 913.386719 557.695312 914.210938 559.238281 C 915.035156 560.78125 915.933594 562.277344 916.90625 563.734375 C 917.878906 565.1875 918.917969 566.589844 920.027344 567.941406 C 921.136719 569.296875 922.3125 570.589844 923.546875 571.828125 C 924.785156 573.0625 926.078125 574.238281 927.433594 575.347656 C 928.785156 576.457031 930.1875 577.496094 931.640625 578.46875 C 933.097656 579.441406 934.59375 580.339844 936.136719 581.164062 C 937.679688 581.988281 939.257812 582.734375 940.875 583.402344 C 942.492188 584.074219 944.136719 584.660156 945.808594 585.167969 C 947.484375 585.675781 949.179688 586.101562 950.894531 586.441406 C 952.609375 586.785156 954.335938 587.039062 956.078125 587.210938 C 957.820312 587.382812 959.5625 587.46875 961.3125 587.46875 C 963.0625 587.46875 964.804688 587.382812 966.546875 587.210938 C 968.289062 587.039062 970.015625 586.785156 971.730469 586.441406 C 973.445312 586.101562 975.140625 585.675781 976.816406 585.167969 C 978.488281 584.660156 980.132812 584.074219 981.75 583.402344 C 983.367188 582.734375 984.945312 581.988281 986.488281 581.164062 C 988.03125 580.339844 989.527344 579.441406 990.984375 578.46875 C 992.4375 577.496094 993.839844 576.457031 995.191406 575.347656 C 996.546875 574.238281 997.839844 573.0625 999.078125 571.828125 C 1000.3125 570.589844 1001.488281 569.296875 1002.597656 567.941406 C 1003.707031 566.589844 1004.746094 565.1875 1005.71875 563.734375 C 1006.691406 562.277344 1007.589844 560.78125 1008.414062 559.238281 C 1009.238281 557.695312 1009.984375 556.117188 1010.652344 554.5 C 1011.324219 552.882812 1011.910156 551.238281 1012.417969 549.566406 C 1012.925781 547.890625 1013.351562 546.195312 1013.691406 544.480469 C 1014.035156 542.765625 1014.289062 541.039062 1014.460938 539.296875 C 1014.632812 537.554688 1014.71875 535.8125 1014.71875 534.0625 C 1014.71875 532.3125 1014.632812 530.570312 1014.460938 528.828125 C 1014.289062 527.085938 1014.035156 525.359375 1013.691406 523.644531 C 1013.351562 521.929688 1012.925781 520.234375 1012.417969 518.558594 C 1011.910156 516.886719 1011.324219 515.242188 1010.652344 513.625 C 1009.984375 512.007812 1009.238281 510.429688 1008.414062 508.886719 C 1007.589844 507.34375 1006.691406 505.847656 1005.71875 504.390625 C 1004.746094 502.9375 1003.707031 501.535156 1002.597656 500.183594 C 1001.488281 498.828125 1000.3125 497.535156 999.078125 496.296875 C 997.839844 495.0625 996.546875 493.886719 995.191406 492.777344 C 993.839844 491.667969 992.4375 490.628906 990.984375 489.65625 C 989.527344 488.683594 988.03125 487.785156 986.488281 486.960938 C 984.945312 486.136719 983.367188 485.390625 981.75 484.722656 C 980.132812 484.050781 978.488281 483.464844 976.816406 482.957031 C 975.140625 482.449219 973.445312 482.023438 971.730469 481.683594 C 970.015625 481.339844 968.289062 481.085938 966.546875 480.914062 C 964.804688 480.742188 963.0625 480.65625 961.3125 480.65625 Z M 427.25 747.6875 L 854.5 747.6875 L 854.5 1068.125 L 427.25 1068.125 Z M 427.25 747.6875 " fill-opacity="1" fill-rule="nonzero"/><g clip-path="url(#aa9761a745)"><g transform="matrix(1, 0, 0, 1, 600, 600)"><g clip-path="url(#00a51e2d9b)"><path fill="#737373" d="M 841.710938 843.890625 C 840.257812 845.339844 838.78125 846.761719 837.273438 848.152344 C 835.761719 849.539062 834.226562 850.898438 832.660156 852.222656 C 831.09375 853.546875 829.5 854.839844 827.878906 856.097656 C 826.261719 857.355469 824.613281 858.578125 822.941406 859.769531 C 821.273438 860.957031 819.578125 862.113281 817.855469 863.230469 C 816.136719 864.347656 814.394531 865.429688 812.628906 866.476562 C 810.863281 867.519531 809.078125 868.527344 807.269531 869.5 C 805.464844 870.46875 803.636719 871.402344 801.789062 872.296875 C 799.945312 873.1875 798.082031 874.042969 796.199219 874.859375 C 794.316406 875.675781 792.417969 876.449219 790.503906 877.1875 C 788.589844 877.921875 786.660156 878.617188 784.714844 879.273438 C 782.769531 879.929688 780.816406 880.542969 778.84375 881.117188 C 776.875 881.6875 774.894531 882.222656 772.902344 882.710938 C 770.910156 883.199219 768.910156 883.648438 766.898438 884.054688 C 764.886719 884.460938 762.871094 884.824219 760.84375 885.148438 C 758.816406 885.46875 756.785156 885.75 754.75 885.984375 C 752.710938 886.222656 750.667969 886.414062 748.625 886.566406 C 746.578125 886.714844 744.53125 886.824219 742.480469 886.890625 C 740.429688 886.953125 738.378906 886.976562 736.328125 886.957031 C 734.277344 886.933594 732.226562 886.871094 730.179688 886.765625 C 728.128906 886.65625 726.085938 886.507812 724.042969 886.316406 C 722 886.121094 719.960938 885.886719 717.929688 885.609375 C 715.898438 885.332031 713.871094 885.011719 711.851562 884.648438 C 709.835938 884.285156 707.824219 883.878906 705.820312 883.433594 C 703.820312 882.984375 701.828125 882.496094 699.847656 881.964844 C 697.867188 881.4375 695.894531 880.863281 693.9375 880.25 C 691.980469 879.636719 690.035156 878.984375 688.105469 878.289062 C 686.175781 877.59375 684.261719 876.859375 682.363281 876.085938 C 680.464844 875.308594 678.582031 874.496094 676.714844 873.640625 C 674.851562 872.789062 673.003906 871.894531 671.175781 870.964844 C 669.347656 870.035156 667.542969 869.0625 665.753906 868.058594 C 663.96875 867.050781 662.203125 866.007812 660.457031 864.925781 C 658.714844 863.84375 656.996094 862.726562 655.300781 861.574219 C 653.601562 860.421875 651.929688 859.234375 650.285156 858.011719 C 648.636719 856.789062 647.015625 855.53125 645.421875 854.238281 C 643.828125 852.949219 642.261719 851.625 640.722656 850.269531 C 639.183594 848.910156 637.675781 847.523438 636.195312 846.101562 C 634.714844 844.683594 633.265625 843.234375 631.84375 841.75 C 630.425781 840.269531 629.039062 838.761719 627.679688 837.222656 C 626.324219 835.683594 625 834.117188 623.710938 832.523438 C 622.421875 830.929688 621.164062 829.308594 619.941406 827.660156 C 618.71875 826.011719 617.53125 824.339844 616.378906 822.644531 C 615.226562 820.949219 614.109375 819.226562 613.027344 817.484375 C 611.949219 815.738281 610.90625 813.976562 609.898438 812.1875 C 608.890625 810.398438 607.921875 808.59375 606.992188 806.765625 C 606.0625 804.9375 605.167969 803.089844 604.316406 801.222656 C 603.460938 799.359375 602.648438 797.476562 601.875 795.578125 C 601.101562 793.675781 600.367188 791.761719 599.671875 789.832031 C 598.976562 787.902344 598.324219 785.957031 597.710938 784 C 597.097656 782.042969 596.527344 780.074219 595.996094 778.089844 C 595.46875 776.109375 594.980469 774.117188 594.53125 772.117188 C 594.085938 770.113281 593.679688 768.105469 593.320312 766.085938 C 592.957031 764.066406 592.636719 762.039062 592.359375 760.007812 C 592.082031 757.976562 591.847656 755.9375 591.65625 753.894531 C 591.460938 751.851562 591.3125 749.808594 591.207031 747.757812 C 591.101562 745.710938 591.039062 743.660156 591.015625 741.609375 C 590.996094 739.558594 591.019531 737.507812 591.085938 735.457031 C 591.148438 733.40625 591.257812 731.359375 591.410156 729.3125 C 591.5625 727.269531 591.753906 725.226562 591.992188 723.1875 C 592.230469 721.152344 592.507812 719.121094 592.832031 717.09375 C 593.152344 715.066406 593.519531 713.050781 593.925781 711.039062 C 594.332031 709.027344 594.78125 707.027344 595.269531 705.035156 C 595.761719 703.042969 596.292969 701.0625 596.867188 699.09375 C 597.441406 697.125 598.054688 695.167969 598.710938 693.222656 L 256.15625 350.667969 C 252.195312 352.527344 248.171875 354.234375 244.082031 355.789062 C 239.996094 357.34375 235.851562 358.742188 231.65625 359.980469 C 227.460938 361.222656 223.226562 362.300781 218.949219 363.21875 C 214.671875 364.140625 210.367188 364.894531 206.03125 365.488281 C 201.699219 366.078125 197.347656 366.507812 192.980469 366.769531 C 188.613281 367.03125 184.242188 367.125 179.871094 367.058594 C 175.496094 366.988281 171.128906 366.753906 166.773438 366.351562 C 162.417969 365.949219 158.082031 365.386719 153.769531 364.65625 C 149.457031 363.925781 145.175781 363.035156 140.929688 361.980469 C 136.6875 360.925781 132.488281 359.710938 128.332031 358.339844 C 124.179688 356.96875 120.082031 355.4375 116.046875 353.753906 C 112.007812 352.070312 108.039062 350.238281 104.140625 348.253906 C 100.242188 346.269531 96.425781 344.136719 92.6875 341.863281 C 88.953125 339.589844 85.308594 337.175781 81.753906 334.625 C 78.199219 332.074219 74.746094 329.394531 71.394531 326.582031 C 68.046875 323.769531 64.808594 320.832031 61.679688 317.773438 C 58.871094 314.917969 56.167969 311.96875 53.566406 308.921875 C 50.964844 305.875 48.472656 302.746094 46.089844 299.523438 C 43.707031 296.304688 41.4375 293.007812 39.285156 289.628906 C 37.136719 286.25 35.101562 282.800781 33.191406 279.28125 C 31.28125 275.761719 29.496094 272.179688 27.832031 268.535156 C 26.171875 264.890625 24.640625 261.195312 23.238281 257.441406 C 21.835938 253.691406 20.566406 249.894531 19.429688 246.054688 C 18.292969 242.214844 17.289062 238.339844 16.421875 234.429688 C 15.554688 230.519531 14.828125 226.582031 14.234375 222.621094 C 13.644531 218.660156 13.191406 214.683594 12.878906 210.691406 C 12.5625 206.699219 12.390625 202.699219 12.355469 198.695312 C 12.320312 194.6875 12.425781 190.6875 12.671875 186.691406 C 12.917969 182.691406 13.300781 178.707031 13.824219 174.738281 C 14.347656 170.765625 15.007812 166.816406 15.808594 162.894531 C 16.609375 158.96875 17.542969 155.078125 18.613281 151.21875 C 19.6875 147.359375 20.890625 143.542969 22.230469 139.765625 L 137.644531 255.183594 C 138.402344 255.9375 139.191406 256.65625 140.019531 257.332031 C 140.84375 258.011719 141.703125 258.648438 142.589844 259.242188 C 143.480469 259.835938 144.394531 260.382812 145.339844 260.886719 C 146.28125 261.390625 147.246094 261.847656 148.234375 262.257812 C 149.222656 262.667969 150.226562 263.027344 151.25 263.335938 C 152.273438 263.648438 153.308594 263.90625 154.359375 264.113281 C 155.40625 264.324219 156.464844 264.480469 157.527344 264.585938 C 158.59375 264.691406 159.660156 264.742188 160.726562 264.742188 C 161.796875 264.742188 162.863281 264.691406 163.925781 264.585938 C 164.992188 264.480469 166.046875 264.324219 167.097656 264.113281 C 168.144531 263.90625 169.179688 263.648438 170.203125 263.335938 C 171.226562 263.027344 172.230469 262.667969 173.21875 262.257812 C 174.207031 261.847656 175.171875 261.390625 176.117188 260.886719 C 177.058594 260.382812 177.976562 259.835938 178.863281 259.242188 C 179.753906 258.648438 180.609375 258.011719 181.4375 257.332031 C 182.261719 256.65625 183.054688 255.9375 183.8125 255.183594 L 253.058594 185.992188 C 253.816406 185.234375 254.53125 184.445312 255.210938 183.617188 C 255.890625 182.789062 256.527344 181.933594 257.121094 181.042969 C 257.714844 180.15625 258.261719 179.238281 258.765625 178.296875 C 259.269531 177.351562 259.726562 176.386719 260.136719 175.398438 C 260.542969 174.414062 260.902344 173.40625 261.214844 172.382812 C 261.523438 171.359375 261.785156 170.324219 261.992188 169.277344 C 262.203125 168.226562 262.359375 167.171875 262.460938 166.109375 C 262.566406 165.042969 262.621094 163.976562 262.621094 162.90625 C 262.621094 161.839844 262.566406 160.773438 262.460938 159.707031 C 262.359375 158.644531 262.203125 157.589844 261.992188 156.539062 C 261.785156 155.492188 261.523438 154.453125 261.214844 153.433594 C 260.902344 152.410156 260.542969 151.402344 260.136719 150.414062 C 259.726562 149.429688 259.269531 148.460938 258.765625 147.519531 C 258.261719 146.578125 257.714844 145.660156 257.121094 144.773438 C 256.527344 143.882812 255.890625 143.023438 255.210938 142.199219 C 254.53125 141.371094 253.816406 140.582031 253.058594 139.824219 L 137.644531 24.410156 C 141.589844 22.980469 145.585938 21.695312 149.625 20.5625 C 153.667969 19.425781 157.746094 18.445312 161.859375 17.609375 C 165.972656 16.777344 170.113281 16.101562 174.277344 15.574219 C 178.441406 15.046875 182.621094 14.679688 186.8125 14.460938 C 191.003906 14.246094 195.199219 14.183594 199.394531 14.28125 C 203.59375 14.375 207.78125 14.625 211.957031 15.03125 C 216.136719 15.433594 220.292969 15.992188 224.429688 16.707031 C 228.566406 17.417969 232.671875 18.285156 236.742188 19.300781 C 240.816406 20.320312 244.84375 21.484375 248.832031 22.800781 C 252.816406 24.117188 256.75 25.578125 260.628906 27.183594 C 264.503906 28.792969 268.320312 30.539062 272.066406 32.429688 C 275.816406 34.320312 279.488281 36.34375 283.085938 38.507812 C 286.683594 40.667969 290.199219 42.960938 293.625 45.382812 C 297.054688 47.804688 300.390625 50.351562 303.628906 53.019531 C 306.867188 55.6875 310.003906 58.472656 313.039062 61.375 C 316.070312 64.277344 318.992188 67.289062 321.804688 70.40625 C 324.613281 73.523438 327.304688 76.742188 329.878906 80.058594 C 332.449219 83.375 334.894531 86.785156 337.214844 90.28125 C 339.535156 93.78125 341.71875 97.359375 343.773438 101.019531 C 345.828125 104.683594 347.746094 108.414062 349.523438 112.214844 C 351.300781 116.019531 352.933594 119.882812 354.425781 123.804688 C 355.917969 127.730469 357.261719 131.703125 358.457031 135.726562 C 359.65625 139.75 360.703125 143.8125 361.597656 147.914062 C 362.496094 152.015625 363.238281 156.140625 363.828125 160.296875 C 364.417969 164.453125 364.851562 168.625 365.132812 172.816406 C 365.414062 177.003906 365.539062 181.195312 365.511719 185.394531 C 365.480469 189.589844 365.296875 193.78125 364.957031 197.964844 C 364.617188 202.148438 364.121094 206.316406 363.472656 210.460938 C 362.824219 214.609375 362.023438 218.726562 361.070312 222.8125 C 360.113281 226.902344 359.011719 230.949219 357.757812 234.957031 C 356.503906 238.960938 355.101562 242.914062 353.554688 246.816406 C 352.007812 250.71875 350.320312 254.558594 348.488281 258.335938 L 691.042969 600.890625 C 692.988281 600.234375 694.945312 599.621094 696.914062 599.046875 C 698.882812 598.472656 700.863281 597.941406 702.855469 597.453125 C 704.847656 596.960938 706.847656 596.511719 708.859375 596.105469 C 710.871094 595.699219 712.886719 595.335938 714.914062 595.011719 C 716.9375 594.691406 718.972656 594.410156 721.007812 594.171875 C 723.046875 593.9375 725.085938 593.742188 727.132812 593.589844 C 729.179688 593.4375 731.226562 593.332031 733.277344 593.265625 C 735.328125 593.199219 737.378906 593.175781 739.429688 593.195312 C 741.480469 593.21875 743.53125 593.28125 745.578125 593.386719 C 747.628906 593.492188 749.671875 593.644531 751.714844 593.835938 C 753.757812 594.027344 755.792969 594.261719 757.828125 594.539062 C 759.859375 594.816406 761.886719 595.136719 763.902344 595.5 C 765.921875 595.859375 767.933594 596.265625 769.9375 596.710938 C 771.9375 597.160156 773.929688 597.648438 775.910156 598.175781 C 777.894531 598.707031 779.863281 599.277344 781.820312 599.890625 C 783.777344 600.503906 785.722656 601.15625 787.652344 601.851562 C 789.582031 602.546875 791.496094 603.28125 793.398438 604.054688 C 795.296875 604.828125 797.179688 605.644531 799.042969 606.496094 C 800.910156 607.351562 802.757812 608.242188 804.585938 609.171875 C 806.410156 610.101562 808.21875 611.070312 810.007812 612.078125 C 811.792969 613.085938 813.558594 614.128906 815.304688 615.210938 C 817.046875 616.289062 818.765625 617.40625 820.464844 618.558594 C 822.160156 619.710938 823.832031 620.898438 825.480469 622.121094 C 827.128906 623.34375 828.746094 624.601562 830.34375 625.890625 C 831.9375 627.183594 833.503906 628.503906 835.042969 629.863281 C 836.582031 631.21875 838.089844 632.605469 839.570312 634.027344 C 841.050781 635.445312 842.503906 636.894531 843.921875 638.375 C 845.34375 639.855469 846.730469 641.367188 848.085938 642.902344 C 849.445312 644.441406 850.769531 646.007812 852.058594 647.601562 C 853.351562 649.195312 854.605469 650.816406 855.832031 652.464844 C 857.054688 654.109375 858.242188 655.78125 859.394531 657.480469 C 860.546875 659.175781 861.664062 660.894531 862.746094 662.640625 C 863.828125 664.382812 864.871094 666.148438 865.878906 667.933594 C 866.882812 669.722656 867.851562 671.53125 868.785156 673.355469 C 869.714844 675.183594 870.609375 677.03125 871.460938 678.898438 C 872.316406 680.761719 873.128906 682.644531 873.90625 684.542969 C 874.679688 686.441406 875.414062 688.355469 876.109375 690.289062 C 876.804688 692.21875 877.457031 694.160156 878.070312 696.117188 C 878.683594 698.078125 879.257812 700.046875 879.785156 702.027344 C 880.316406 704.007812 880.804688 706 881.253906 708.003906 C 881.699219 710.003906 882.105469 712.015625 882.46875 714.035156 C 882.832031 716.050781 883.152344 718.078125 883.429688 720.109375 C 883.707031 722.144531 883.941406 724.179688 884.136719 726.222656 C 884.328125 728.265625 884.476562 730.308594 884.585938 732.359375 C 884.691406 734.40625 884.753906 736.457031 884.777344 738.507812 C 884.796875 740.558594 884.773438 742.609375 884.710938 744.660156 C 884.644531 746.710938 884.535156 748.757812 884.386719 750.804688 C 884.234375 752.851562 884.039062 754.890625 883.804688 756.929688 C 883.566406 758.964844 883.289062 761 882.96875 763.023438 C 882.644531 765.050781 882.28125 767.070312 881.875 769.078125 C 881.46875 771.089844 881.019531 773.089844 880.53125 775.082031 C 880.039062 777.074219 879.507812 779.054688 878.9375 781.023438 C 878.363281 782.996094 877.75 784.953125 877.09375 786.894531 C 876.4375 788.839844 875.742188 790.769531 875.007812 792.683594 C 874.269531 794.597656 873.496094 796.496094 872.679688 798.378906 C 871.863281 800.261719 871.007812 802.125 870.113281 803.972656 C 869.222656 805.816406 868.289062 807.644531 867.320312 809.453125 C 866.347656 811.257812 865.339844 813.046875 864.296875 814.808594 C 863.25 816.574219 862.167969 818.316406 861.050781 820.035156 C 859.933594 821.757812 858.777344 823.453125 857.589844 825.125 C 856.398438 826.796875 855.175781 828.441406 853.917969 830.0625 C 852.660156 831.679688 851.367188 833.273438 850.042969 834.839844 C 848.71875 836.40625 847.359375 837.941406 845.96875 839.453125 C 844.582031 840.960938 843.160156 842.441406 841.710938 843.890625 Z M 784 693.847656 L 714.75 670.75 L 668.570312 716.933594 L 691.667969 786.183594 L 760.917969 809.265625 L 807.085938 763.097656 Z M 784 693.847656 " fill-opacity="1" fill-rule="nonzero"/></g></g></g></svg>